<svg width="86" height="25" viewBox="0 0 86 25" fill="none" xmlns="http://www.w3.org/2000/svg">
<path d="M12.4908 5.87293C12.5224 5.08736 12.2919 4.4809 11.7994 4.05354C11.3133 3.62619 10.5777 3.41252 9.59278 3.41252C8.92353 3.41252 8.34266 3.50679 7.85019 3.69532C7.35771 3.87758 6.9631 4.1321 6.66636 4.4589C6.37593 4.77941 6.19598 5.1502 6.12653 5.57127C6.05708 5.91692 6.07918 6.21858 6.19283 6.47625C6.31279 6.73391 6.49904 6.95701 6.75159 7.14555C7.01046 7.3278 7.31668 7.48806 7.67025 7.62632C8.02382 7.7583 8.39948 7.87142 8.79725 7.96569L10.4641 8.38047C11.2786 8.56901 12.011 8.82039 12.6613 9.13462C13.3179 9.44884 13.8672 9.83535 14.3092 10.2941C14.7574 10.7529 15.0731 11.2934 15.2562 11.9155C15.4393 12.5377 15.4646 13.251 15.332 14.0554C15.1299 15.2369 14.6596 16.2613 13.9209 17.1286C13.1822 17.9896 12.213 18.6589 11.0134 19.1365C9.81376 19.6078 8.42474 19.8435 6.8463 19.8435C5.28049 19.8435 3.95776 19.6047 2.87811 19.1271C1.79846 18.6494 1.01239 17.9424 0.51992 17.006C0.033761 16.0634 -0.111455 14.8976 0.0842711 13.5087H4.05246C3.98301 14.156 4.07772 14.6965 4.33658 15.1301C4.60176 15.5574 4.99637 15.8811 5.52041 16.1011C6.04445 16.3147 6.66004 16.4216 7.36719 16.4216C8.06801 16.4216 8.68992 16.321 9.2329 16.1199C9.7822 15.9188 10.2273 15.6391 10.5683 15.2809C10.9092 14.9227 11.1176 14.5111 11.1933 14.046C11.2691 13.6124 11.2028 13.2479 10.9944 12.9525C10.7861 12.6571 10.4515 12.4057 9.99055 12.1983C9.53596 11.9847 8.97088 11.7961 8.29531 11.6327L6.26859 11.1048C4.70278 10.7089 3.51895 10.0899 2.71711 9.24774C1.91526 8.40561 1.62798 7.27124 1.85528 5.84465C2.05732 4.67572 2.54663 3.65448 3.32323 2.78092C4.10613 1.90108 5.09108 1.21921 6.27806 0.735294C7.47136 0.245098 8.77515 0 10.1894 0C11.629 0 12.8444 0.248241 13.8356 0.744722C14.8269 1.23492 15.5498 1.91994 16.0044 2.79977C16.459 3.67961 16.5979 4.704 16.4211 5.87293H12.4908Z" fill="black"/>
<path d="M16.2151 25L19.5677 5.0905H23.5454L23.1382 7.52262H23.3181C23.558 7.13298 23.8769 6.73705 24.2746 6.33484C24.6787 5.92635 25.1807 5.58698 25.7805 5.31674C26.3803 5.04022 27.0842 4.90196 27.8924 4.90196C28.9594 4.90196 29.8907 5.17848 30.6862 5.73152C31.4818 6.27828 32.0563 7.1047 32.4099 8.21078C32.7698 9.31058 32.8108 10.69 32.533 12.3492C32.2678 13.9643 31.7785 15.3281 31.0651 16.4404C30.3579 17.5465 29.5087 18.3855 28.5175 18.9574C27.5325 19.523 26.4876 19.8058 25.3827 19.8058C24.5998 19.8058 23.9558 19.677 23.4507 19.4193C22.9519 19.1616 22.5636 18.838 22.2858 18.4483C22.008 18.0524 21.8123 17.6533 21.6986 17.2511H21.5471L20.2591 25H16.2151ZM22.3047 12.3303C22.1658 13.1913 22.1595 13.9423 22.2858 14.5833C22.4184 15.2244 22.6836 15.724 23.0813 16.0822C23.4791 16.4341 24.0031 16.6101 24.6535 16.6101C25.3101 16.6101 25.8941 16.431 26.4055 16.0728C26.9169 15.7083 27.3431 15.2055 27.6841 14.5645C28.025 13.9172 28.2681 13.1724 28.4133 12.3303C28.5459 11.4945 28.549 10.7592 28.4228 10.1244C28.2965 9.48969 28.0376 8.99321 27.6462 8.63499C27.2547 8.27677 26.7244 8.09766 26.0551 8.09766C25.4048 8.09766 24.8208 8.27049 24.303 8.61614C23.7916 8.96179 23.3654 9.45199 23.0245 10.0867C22.6836 10.7215 22.4436 11.4693 22.3047 12.3303Z" fill="black"/>
<path d="M40.5902 19.8529C39.1064 19.8529 37.8784 19.5387 36.9061 18.9103C35.9338 18.2755 35.2487 17.3957 34.851 16.2707C34.4595 15.1395 34.3869 13.8229 34.6331 12.3209C34.8731 10.8377 35.3718 9.53997 36.1295 8.4276C36.8871 7.31523 37.85 6.45111 39.018 5.83522C40.1861 5.21305 41.5025 4.90196 42.9673 4.90196C44.4447 4.90196 45.6696 5.21933 46.6419 5.85407C47.6142 6.48253 48.2992 7.36237 48.697 8.49359C49.0948 9.62481 49.1705 10.9414 48.9243 12.4434C48.6781 13.9203 48.173 15.2149 47.409 16.3273C46.645 17.4397 45.6822 18.3069 44.5205 18.9291C43.3587 19.545 42.0486 19.8529 40.5902 19.8529ZM40.9879 16.7421C41.6698 16.7421 42.2728 16.5504 42.7968 16.167C43.3272 15.7774 43.766 15.2495 44.1132 14.5833C44.4668 13.9109 44.713 13.1505 44.8519 12.302C44.9908 11.4662 45.0003 10.7246 44.8803 10.0773C44.7604 9.42371 44.5078 8.90837 44.1227 8.5313C43.7439 8.15422 43.223 7.96569 42.56 7.96569C41.8782 7.96569 41.272 8.16051 40.7417 8.55015C40.2113 8.93351 39.7725 9.46141 39.4253 10.1339C39.078 10.8063 38.8349 11.5699 38.696 12.4246C38.5634 13.2541 38.554 13.9957 38.6676 14.6493C38.7813 15.2966 39.0307 15.8088 39.4158 16.1859C39.8009 16.5567 40.325 16.7421 40.9879 16.7421Z" fill="black"/>
<path d="M50.3544 19.5701L52.7789 5.0905H56.6902L56.264 7.61689H56.4156C56.8323 6.7182 57.391 6.03947 58.0919 5.5807C58.799 5.11564 59.5598 4.88311 60.3743 4.88311C60.5763 4.88311 60.7878 4.89568 61.0088 4.92081C61.2361 4.93967 61.4382 4.97109 61.615 5.01508L61.0088 8.58786C60.832 8.52501 60.5795 8.47474 60.2512 8.43703C59.9292 8.39304 59.623 8.37104 59.3325 8.37104C58.7453 8.37104 58.1992 8.49988 57.6941 8.75754C57.189 9.00892 56.7628 9.36086 56.4156 9.81335C56.0746 10.2658 55.8505 10.7875 55.7432 11.3782L54.3889 19.5701H50.3544Z" fill="black"/>
<path d="M72.1581 5.0905L71.6562 8.10709H62.8864L63.3978 5.0905H72.1581ZM65.9549 1.62142H69.9894L67.7353 15.1207C67.6722 15.4915 67.6817 15.7805 67.7638 15.9879C67.8458 16.189 67.9816 16.3304 68.171 16.4121C68.3667 16.4938 68.6003 16.5347 68.8718 16.5347C69.0612 16.5347 69.2538 16.519 69.4495 16.4876C69.6453 16.4499 69.7936 16.4216 69.8946 16.4027L70.0462 19.391C69.8189 19.4602 69.5127 19.5356 69.1275 19.6173C68.7487 19.699 68.3004 19.7492 67.7827 19.7681C66.7978 19.8058 65.9643 19.677 65.2824 19.3816C64.6006 19.0799 64.1113 18.618 63.8145 17.9959C63.5178 17.3737 63.4546 16.5913 63.6251 15.6486L65.9549 1.62142Z" fill="black"/>
<path d="M85.9971 9.21946L82.332 9.4457C82.313 9.12519 82.2246 8.83924 82.0668 8.58786C81.9152 8.33019 81.6911 8.12594 81.3944 7.97511C81.1039 7.82428 80.7377 7.74887 80.2958 7.74887C79.6328 7.74887 79.0425 7.8997 78.5248 8.20136C78.007 8.50302 77.7134 8.88952 77.644 9.36086C77.5872 9.66252 77.6661 9.91704 77.8808 10.1244C78.0954 10.3318 78.5279 10.5078 79.1782 10.6523L81.7353 11.1802C83.0991 11.4693 84.084 11.9501 84.6901 12.6226C85.3026 13.295 85.5204 14.1748 85.3436 15.2621C85.1858 16.1859 84.7785 16.9935 84.1219 17.6848C83.4653 18.3698 82.6319 18.904 81.6217 19.2873C80.6115 19.6644 79.4908 19.8529 78.2596 19.8529C76.2834 19.8529 74.7807 19.4507 73.7516 18.6463C72.7224 17.8419 72.2268 16.7515 72.2647 15.3752L76.2045 15.1678C76.236 15.7585 76.4444 16.2048 76.8295 16.5064C77.2147 16.8018 77.7419 16.9526 78.4111 16.9589C79.1625 16.9715 79.8001 16.8175 80.3242 16.497C80.8545 16.1702 81.1544 15.7743 81.2239 15.3092C81.2744 14.9824 81.1797 14.7185 80.9398 14.5173C80.7062 14.3162 80.2768 14.1497 79.6518 14.0177L77.2273 13.5181C75.8509 13.2353 74.8628 12.7294 74.263 12.0004C73.6632 11.2714 73.458 10.3444 73.6474 9.21946C73.7989 8.32077 74.1746 7.55091 74.7744 6.90988C75.3805 6.26257 76.1603 5.76609 77.1136 5.42044C78.0733 5.07479 79.1561 4.90196 80.3621 4.90196C82.2499 4.90196 83.6705 5.28846 84.6238 6.06146C85.5835 6.83447 86.0413 7.88713 85.9971 9.21946Z" fill="black"/>
</svg>
